<svg xmlns="http://www.w3.org/2000/svg"  viewBox="0 0 48 48" width="480px" height="480px"><path fill="#4b7bb2" d="M4.041,10.123c0.01-1.078,0.245-1.862,0.654-2.712c0.251-0.523,0.529-1.045,0.943-1.452	c0.275-0.271,0.601-0.483,0.925-0.692c0.99-0.641,2.101-1.311,3.267-1.131c3.841,0.591,7.787,0.182,11.659-0.142	c4.265-0.357,8.635-0.064,12.952-0.087c2.521-0.013,5.254,0.042,7.241,1.594c1.65,1.288,2.464,3.408,2.686,5.489	s-0.356,4.174-0.236,6.264c0.316,5.496,0.005,10.765,0.242,16.146c0.08,1.805,0.135,3.639-0.307,5.391	c-0.442,1.752-1.451,3.439-3.038,4.301c-1.411,0.767-3.119,1.132-4.695,0.824c-2.232-0.436-4.546,0.056-6.819,0.083	c-0.595,0.007-1.189,0.015-1.784,0.022c-3.126,0.038-5.976-0.189-9.101-0.289C16.286,43.656,13.775,44,11.281,44	c-1.664,0-3.363-0.274-4.886-1.122c-1.131-0.63-1.854-1.832-2.19-3.083c-0.336-1.251-0.447-2.569-0.329-3.859	C4.725,26.691,4.024,9.858,4.041,10.123z"/><path fill="#d6e5e5" d="M17.237,14.574c0.152,0.006,0.318,0.017,0.43,0.121c0.126,0.117,0.137,0.31,0.14,0.482	c0.065,4.415,0.034,8.832-0.095,13.246c-0.004,0.135-0.001,0.288,0.096,0.382c0.08,0.077,0.201,0.09,0.312,0.098	c2.371,0.178,3.864,0.012,6.235-0.167c0.118-0.009,0.246-0.016,0.346,0.047c0.162,0.103,0.172,0.333,0.157,0.524	c-0.057,0.721-0.215,1.434-0.466,2.112c-0.063,0.169-0.136,0.343-0.271,0.463c-0.192,0.17-0.467,0.199-0.723,0.217	c-3.374,0.241-5.88,0.305-9.233-0.137c-0.747-1.414-0.31-2.472-0.502-4.06c-0.055-0.45,0.167-1.561,0.118-2.011	c-0.129-1.198-0.103-2.345-0.086-3.55c0.019-1.35-0.091-2.705,0.013-4.051c0.082-1.062,0.17-1.915,0.281-3.154	c0.079-0.88,0.293-0.679,1.006-0.651C15.741,14.516,16.489,14.545,17.237,14.574z"/><path fill="#d6e5e5" d="M27.532,27.096c-0.03,1.546-0.068,3.125,0.393,4.601c0.041,0.132,0.089,0.267,0.184,0.366	c0.115,0.12,0.285,0.171,0.449,0.198c1.022,0.164,2.947,0.028,3.075-0.219c0.498-2.567-0.034-5.206-0.133-7.819	c-0.007-0.192-0.01-0.394,0.082-0.562c0.096-0.176,0.279-0.284,0.457-0.377c1.191-0.631,2.515-1.01,3.859-1.106	c0.072-1.051,0.096-2.104,0.07-3.157c-0.007-0.296-0.053-0.649-0.319-0.781c-0.198-0.098-0.435-0.025-0.642,0.055	c-1.354,0.523-2.614,1.29-3.702,2.251c-0.187-0.612,0.179-1.428-0.318-1.832c-0.146-0.118-0.336-0.164-0.52-0.199	c-1.774-0.331-2.873-0.084-2.886,1.783C27.568,22.564,27.576,24.83,27.532,27.096z"/><path fill="none" stroke="#010101" stroke-miterlimit="10" d="M4.041,10.123c0.01-1.078,0.245-1.862,0.654-2.712	c0.251-0.523,0.529-1.045,0.943-1.452c0.275-0.271,0.601-0.483,0.925-0.692c0.99-0.641,2.101-1.311,3.267-1.131	c3.841,0.591,7.787,0.182,11.659-0.142c4.265-0.357,8.635-0.064,12.952-0.087c2.521-0.013,5.254,0.042,7.241,1.594	c1.65,1.288,2.464,3.408,2.686,5.489s-0.356,4.174-0.236,6.264c0.316,5.496,0.005,10.765,0.242,16.146	c0.08,1.805,0.135,3.639-0.307,5.391c-0.442,1.752-1.451,3.439-3.038,4.301c-1.411,0.767-3.119,1.132-4.695,0.824	c-2.232-0.436-4.546,0.056-6.819,0.083c-0.595,0.007-1.189,0.015-1.784,0.022c-3.126,0.038-5.976-0.189-9.101-0.289	C16.286,43.656,13.775,44,11.281,44c-1.664,0-3.363-0.274-4.886-1.122c-1.131-0.63-1.854-1.832-2.19-3.083	c-0.336-1.251-0.447-2.569-0.329-3.859C4.725,26.691,4.024,9.858,4.041,10.123z"/><path fill="none" stroke="#010101" stroke-miterlimit="10" d="M17.237,14.574c0.152,0.006,0.318,0.017,0.43,0.121	c0.126,0.117,0.137,0.31,0.14,0.482c0.065,4.415,0.034,8.832-0.095,13.246c-0.004,0.135-0.001,0.288,0.096,0.382	c0.08,0.077,0.201,0.09,0.312,0.098c2.371,0.178,3.864,0.012,6.235-0.167c0.118-0.009,0.246-0.016,0.346,0.047	c0.162,0.103,0.172,0.333,0.157,0.524c-0.057,0.721-0.215,1.434-0.466,2.112c-0.063,0.169-0.136,0.343-0.271,0.463	c-0.192,0.17-0.467,0.199-0.723,0.217c-3.374,0.241-5.88,0.305-9.233-0.137c-0.747-1.414-0.31-2.472-0.502-4.06	c-0.055-0.45,0.167-1.561,0.118-2.011c-0.129-1.198-0.103-2.345-0.086-3.55c0.019-1.35-0.091-2.705,0.013-4.051	c0.082-1.062,0.17-1.915,0.281-3.154c0.079-0.88,0.293-0.679,1.006-0.651C15.741,14.516,16.489,14.545,17.237,14.574z"/><path fill="none" stroke="#010101" stroke-miterlimit="10" d="M27.532,27.096c-0.03,1.546-0.068,3.125,0.393,4.601	c0.041,0.132,0.089,0.267,0.184,0.366c0.115,0.12,0.285,0.171,0.449,0.198c1.022,0.164,2.947,0.028,3.075-0.219	c0.498-2.567-0.034-5.206-0.133-7.819c-0.007-0.192-0.01-0.394,0.082-0.562c0.096-0.176,0.279-0.284,0.457-0.377	c1.191-0.631,2.515-1.01,3.859-1.106c0.072-1.051,0.096-2.104,0.07-3.157c-0.007-0.296-0.053-0.649-0.319-0.781	c-0.198-0.098-0.435-0.025-0.642,0.055c-1.354,0.523-2.614,1.29-3.702,2.251c-0.187-0.612,0.179-1.428-0.318-1.832	c-0.146-0.118-0.336-0.164-0.52-0.199c-1.774-0.331-2.873-0.084-2.886,1.783C27.568,22.564,27.576,24.83,27.532,27.096z"/></svg>